<svg xmlns="http://www.w3.org/2000/svg" width="24" height="21.6" viewBox="0 0 24 21.6">
  <defs>
    <style>
      .cls-1 {
        fill: none;
        stroke-linecap: round;
        stroke-miterlimit: 10;
      }

      .cls-2, .cls-3 {
        stroke: none;
      }

      .cls-3 {
        fill: #fff;
      }
    </style>
  </defs>
  <g id="_Color" data-name=" ↳Color" class="cls-1">
    <path class="cls-2" d="M12,21.6l-1.74-1.554C4.08,14.549,0,10.924,0,6.474A6.474,6.474,0,0,1,6.6,0,7.244,7.244,0,0,1,12,2.46,7.244,7.244,0,0,1,17.4,0,6.474,6.474,0,0,1,24,6.474c0,4.449-4.08,8.075-10.26,13.584Z"/>
    <path class="cls-3" d="M 12.00634479522705 17.58449172973633 C 14.84623432159424 15.05270576477051 17.29418182373047 12.85839366912842 18.89472198486328 10.93394470214844 C 20.35071182250977 9.183311462402344 21 7.807844638824463 21 6.474111080169678 C 21 5.532922267913818 20.63960075378418 4.661055564880371 19.98520088195801 4.019144535064697 C 19.31522178649902 3.361933469772339 18.3971118927002 3.000000238418579 17.39999961853027 3.000000238418579 C 16.23056602478027 3.000000238418579 15.02947807312012 3.546733617782593 14.2654447555542 4.426833629608154 L 12 7.036444664001465 L 9.734555244445801 4.426833629608154 C 8.970521926879883 3.546733617782593 7.769433498382568 3.000000238418579 6.599999904632568 3.000000238418579 C 5.602889060974121 3.000000238418579 4.684777736663818 3.361933469772339 4.014800071716309 4.019144535064697 C 3.360399961471558 4.661055564880371 3 5.532922267913818 3 6.474111080169678 C 3 7.810288906097412 3.651599884033203 9.188066482543945 5.11275577545166 10.94145584106445 C 6.715579032897949 12.86485481262207 9.164762496948242 15.05655860900879 12.00634479522705 17.58449172973633 M 12 21.60000038146973 L 10.26000022888184 20.04621124267578 C 4.079999923706055 14.54909992218018 0 10.92360019683838 0 6.474111080169678 C 0 2.848611354827881 2.904000043869019 1.907348661234209e-07 6.599999904632568 1.907348661234209e-07 C 8.687999725341797 1.907348661234209e-07 10.69200038909912 0.9534557461738586 12 2.460166931152344 C 13.30799961090088 0.9534557461738586 15.3120002746582 1.907348661234209e-07 17.39999961853027 1.907348661234209e-07 C 21.09600067138672 1.907348661234209e-07 24 2.848611354827881 24 6.474111080169678 C 24 10.92360019683838 19.92000007629395 14.54909992218018 13.73999977111816 20.0579891204834 L 12 21.60000038146973 Z"/>
  </g>
</svg>
