<svg xmlns="http://www.w3.org/2000/svg" width="95.924" height="26.227" viewBox="0 0 95.924 26.227">
  <defs>
    <style>
      .cls-1 {
        fill: #fff;
      }

      .cls-2 {
        isolation: isolate;
      }
    </style>
  </defs>
  <g id="그룹_129" data-name="그룹 129" transform="translate(-1171 -727.852)">
    <g id="그룹_108" data-name="그룹 108" transform="translate(1171 727.852)">
      <g id="패스_71" data-name="패스 71" transform="translate(5.16 9.032)">
        <path id="패스_85" data-name="패스 85" class="cls-1" d="M365.632,570.685a1.5,1.5,0,0,1-1.061-.44l-6.452-6.452a1.5,1.5,0,0,1,2.121-2.121l5.391,5.391,5.388-5.391a1.5,1.5,0,0,1,2.122,2.121l-6.448,6.452A1.5,1.5,0,0,1,365.632,570.685Z" transform="translate(-357.68 -561.232)"/>
      </g>
      <g id="그룹_107" data-name="그룹 107" class="cls-2" transform="translate(38.404 7.073)">
        <path id="패스_80" data-name="패스 80" class="cls-1" d="M391.357,560.661a1.183,1.183,0,0,1,.4-.818,1.409,1.409,0,0,1,.871-.325q.7-.053,1.456-.079c.5-.016.927-.026,1.274-.026a8.828,8.828,0,0,1,2.509.43,7.7,7.7,0,0,1,2.288,1.17,6.453,6.453,0,0,1,1.7,1.911,5.441,5.441,0,0,1,.729,2.626,5.184,5.184,0,0,1-.391,2.365,4.019,4.019,0,0,1-1.234,1.561,5.331,5.331,0,0,1-1.911.883,11.585,11.585,0,0,1-2.444.338q-.234,0-.624-.012t-.858-.066c-.312-.034-.633-.078-.962-.13a8.3,8.3,0,0,1-.962-.208q-.053,1.406-.039,2.614t.091,2.092a.823.823,0,0,1-.273.754,1.277,1.277,0,0,1-1.534.156.86.86,0,0,1-.429-.727q-.053-.676-.078-1.691t-.013-2.236q.014-1.221.052-2.6t.091-2.77q.051-1.391.117-2.729T391.357,560.661Zm2.184.962q-.027.5-.065,1.2t-.078,1.535q-.039.831-.078,1.767t-.065,1.925a8.854,8.854,0,0,0,1.807.416,9.152,9.152,0,0,0,1.781.077,6.432,6.432,0,0,0,1.339-.194,4.38,4.38,0,0,0,1.2-.494,2.506,2.506,0,0,0,.858-.872,2.663,2.663,0,0,0,.325-1.377,3.086,3.086,0,0,0-.481-1.691,4.531,4.531,0,0,0-1.248-1.287,6.054,6.054,0,0,0-1.716-.818,5.993,5.993,0,0,0-1.911-.26q-.339.025-.78.025A7.7,7.7,0,0,0,393.541,561.623Z" transform="translate(-390.923 -559.273)"/>
        <path id="패스_81" data-name="패스 81" class="cls-1" d="M406.124,560.531a.941.941,0,0,1,.43-.754,1.436,1.436,0,0,1,.766-.233,1.2,1.2,0,0,1,.742.246.8.8,0,0,1,.272.768q-.1,1.379-.233,2.652t-.208,2.509q-.078,1.234-.091,2.457a18.447,18.447,0,0,0,.142,2.47c.035.294.066.584.091.871a1.968,1.968,0,0,0,.235.78,1.6,1.6,0,0,0,.624.6,2.742,2.742,0,0,0,1.26.272,9.087,9.087,0,0,0,1.092-.013c.434-.025.91-.064,1.431-.117s1.061-.107,1.625-.169,1.122-.107,1.677-.142a.857.857,0,0,1,.8.3,1.461,1.461,0,0,1,.338.715,1.165,1.165,0,0,1-.143.729.953.953,0,0,1-.689.468q-.755.129-1.755.234t-2.027.182q-1.029.077-1.95.09t-1.522-.039a4.279,4.279,0,0,1-1.442-.4,2.749,2.749,0,0,1-.962-.793,3.457,3.457,0,0,1-.572-1.195,8.945,8.945,0,0,1-.274-1.586,31.557,31.557,0,0,1-.194-5.474Q405.735,563.288,406.124,560.531Z" transform="translate(-390.923 -559.273)"/>
        <path id="패스_82" data-name="패스 82" class="cls-1" d="M424.87,559.777a1.058,1.058,0,0,1,.611-.428,1.711,1.711,0,0,1,.78-.052,1.786,1.786,0,0,1,.728.311,1.247,1.247,0,0,1,.482.663q1.272,3.537,2.469,7.059t2.132,7.241a.992.992,0,0,1-.091.95,1.626,1.626,0,0,1-.714.481,1.3,1.3,0,0,1-.793-.092,1.13,1.13,0,0,1-.56-.766q-.6-2.236-1.2-4.212-1.507,0-3.2-.027c-1.127-.016-2.246-.009-3.355.027l-1.794,4.576a.763.763,0,0,1-.6.48,1.564,1.564,0,0,1-.832-.039,1.275,1.275,0,0,1-.611-.494.951.951,0,0,1-.013-.884q.365-1.039.845-2.34t1.04-2.7q.559-1.4,1.157-2.834t1.2-2.729q.6-1.3,1.2-2.379A18.8,18.8,0,0,1,424.87,559.777Zm1.04,2.523q-.858,1.715-1.573,3.314t-1.364,3.238q1.272-.027,2.6,0t2.47.026q-.493-1.56-1.04-3.147T425.91,562.3Z" transform="translate(-390.923 -559.273)"/>
        <path id="패스_83" data-name="패스 83" class="cls-1" d="M435.374,560.661a1.2,1.2,0,0,1,.39-.818,1.352,1.352,0,0,1,.858-.325,1.04,1.04,0,0,1,.416.09,1.2,1.2,0,0,1,.364.247,1.175,1.175,0,0,1,.246.365.684.684,0,0,1,.039.441.627.627,0,0,0-.025.183v.468a22.739,22.739,0,0,0,1.69,2.951q.988,1.469,2.119,2.885t2.314,2.756q1.182,1.341,2.275,2.587.078-1.248.1-2.678t.013-2.963q-.014-1.534-.065-3.108t-.1-3.106a.816.816,0,0,1,.3-.729,1.434,1.434,0,0,1,.714-.311,1.108,1.108,0,0,1,.781.194.992.992,0,0,1,.416.768q.025.467.078,1.417t.078,2.171q.025,1.221.052,2.6t.012,2.692q-.012,1.313-.064,2.457t-.13,1.923a1.581,1.581,0,0,1-.468,1.014,2.016,2.016,0,0,1-1.04.547,2.1,2.1,0,0,1-1.235-.442,7.211,7.211,0,0,1-1.027-.884q-1.794-1.95-3.614-4.173a44.646,44.646,0,0,1-3.3-4.59q-.027,1.223-.052,2.588t-.027,2.664q0,1.3.014,2.457t.091,1.964a.791.791,0,0,1-.313.754,1.586,1.586,0,0,1-.8.338,1.418,1.418,0,0,1-.793-.183.864.864,0,0,1-.429-.727q-.052-.676-.078-1.691t-.052-2.235q-.026-1.223-.026-2.6t.039-2.756q.039-1.377.091-2.716T435.374,560.661Z" transform="translate(-390.923 -559.273)"/>
      </g>
      <g id="패스_70" data-name="패스 70" transform="translate(0 15.485)">
        <path id="패스_84" data-name="패스 84" class="cls-1" d="M374.664,578.427H356.6a4.085,4.085,0,0,1-4.081-4.081v-5.161a1.5,1.5,0,0,1,3,0v5.161a1.082,1.082,0,0,0,1.081,1.081h18.064a1.083,1.083,0,0,0,1.081-1.081v-5.161a1.5,1.5,0,0,1,3,0v5.161A4.086,4.086,0,0,1,374.664,578.427Z" transform="translate(-352.519 -567.685)"/>
      </g>
      <g id="패스_72" data-name="패스 72" transform="translate(11.613)">
        <path id="패스_86" data-name="패스 86" class="cls-1" d="M365.632,570.685a1.5,1.5,0,0,1-1.5-1.5V553.7a1.5,1.5,0,0,1,3,0v15.485A1.5,1.5,0,0,1,365.632,570.685Z" transform="translate(-364.132 -552.2)"/>
      </g>
    </g>
  </g>
</svg>
